<svg height="60" viewBox="0 0 60 60" width="60" xmlns="http://www.w3.org/2000/svg"><path d="m60 46.535a13.458 13.458 0 0 1 -13.465 13.465h-33.07a13.466 13.466 0 0 1 -13.465-13.465v-33.07a13.466 13.466 0 0 1 13.465-13.465h33.07a13.458 13.458 0 0 1 13.465 13.465z" fill="#891818"/><g fill="#fff" fill-rule="evenodd"><path d="m114.5 185.563v-21.373c.035 0 .07-.012.1-.012 3.461 0 6.922-.012 10.4.012a8.069 8.069 0 0 1 3.31.653 4.832 4.832 0 0 1 2.972 3.951 6.026 6.026 0 0 1 -.245 2.913 3.966 3.966 0 0 1 -1.876 2.156c-.128.07-.268.151-.408.233a.747.747 0 0 0 .186.07 4.635 4.635 0 0 1 2.983 3.648 6.426 6.426 0 0 1 -.513 4.137 5.946 5.946 0 0 1 -4.568 3.391 16.448 16.448 0 0 1 -2.727.221zm4.941-3.718c.047 0 .082.012.117.012 1.5 0 3 .012 4.5-.012a7.73 7.73 0 0 0 1.364-.14 2.388 2.388 0 0 0 2-1.946 4.18 4.18 0 0 0 .093-1.2 2.263 2.263 0 0 0 -1.573-2.144 4.633 4.633 0 0 0 -1.538-.256c-1.632-.012-3.263-.012-4.895-.012-.023 0-.035.012-.07.012zm0-9.23h.093c1.515 0 3.042.012 4.568 0a4.1 4.1 0 0 0 1.993-.455 1.73 1.73 0 0 0 .9-1.119 3.439 3.439 0 0 0 .082-1.294 1.773 1.773 0 0 0 -1.363-1.6 7.718 7.718 0 0 0 -2.121-.256c-1.329-.012-2.669 0-4 0h-.128c-.024 1.589-.024 3.151-.024 4.724z" transform="translate(-100.981 -144.876)"/><path d="m294.076 216.19h-11.153c.023.221.035.443.07.664a4.229 4.229 0 0 0 .35 1.247 3.258 3.258 0 0 0 2.459 1.818 4.375 4.375 0 0 0 1.865-.012 2.932 2.932 0 0 0 2.039-1.538.2.2 0 0 1 .21-.117h3.962c-.047.21-.093.42-.14.606a5.277 5.277 0 0 1 -1.224 2.016 6.844 6.844 0 0 1 -4.312 2.261 9.388 9.388 0 0 1 -3.986-.21 7.856 7.856 0 0 1 -3.566-2.109 6.108 6.108 0 0 1 -1.492-2.972 11.487 11.487 0 0 1 .175-5.862 6.662 6.662 0 0 1 5.524-4.836 8.744 8.744 0 0 1 5.058.5 6.454 6.454 0 0 1 3.31 3.17 7.373 7.373 0 0 1 .793 2.972c.047.758.047 1.527.07 2.3a.259.259 0 0 0 -.012.102zm-4.172-2.645c0-.023.012-.047 0-.07-.012-.152-.035-.291-.058-.443a3.037 3.037 0 0 0 -1.946-2.471 3.912 3.912 0 0 0 -1.795-.245 2.967 2.967 0 0 0 -2.7 1.865 9.617 9.617 0 0 0 -.326.979c-.035.128-.047.256-.07.385z" transform="translate(-246.19 -182.694)"/><path d="m307 174.371v-2.471h8.589v2.471z" transform="translate(-271.047 -151.701)"/></g></svg>